<svg width="1091" height="570" viewBox="0 0 1091 570" fill="none" xmlns="http://www.w3.org/2000/svg">
<path d="M342.349 431L342.349 568" stroke="white" stroke-width="2.35833"/>
<path d="M342.349 475L373.98 431" stroke="white"/>
<path d="M342.349 450L356.266 430" stroke="white"/>
<path d="M342.349 506L394.223 430" stroke="white"/>
<path d="M343.613 534L414.466 430" stroke="white"/>
<path d="M343.613 568L438.506 430" stroke="white"/>
<path d="M367.653 568L462.546 430" stroke="white"/>
<path d="M391.692 568L485.32 430" stroke="white"/>
<path d="M509.359 568L602.987 430" stroke="white"/>
<path d="M624.496 568L719.389 430" stroke="white"/>
<path d="M414.467 567L509.359 429" stroke="white"/>
<path d="M532.134 567L627.026 429" stroke="white"/>
<path d="M648.535 567L742.163 429" stroke="white"/>
<path d="M438.506 568L532.133 430" stroke="white"/>
<path d="M556.173 568L649.8 430" stroke="white"/>
<path d="M671.31 568L766.202 430" stroke="white"/>
<path d="M461.28 568L556.173 430" stroke="white"/>
<path d="M578.947 568L673.84 430" stroke="white"/>
<path d="M695.35 568L788.977 430" stroke="white"/>
<path d="M484.055 568L578.947 430" stroke="white"/>
<path d="M602.987 568L696.615 430" stroke="white"/>
<path d="M718.123 568L813.016 430" stroke="white"/>
<path d="M745.959 567L839.586 430" stroke="white"/>
<path d="M772.528 567L862.36 431" stroke="white"/>
<path d="M795.303 567L863.625 467" stroke="white"/>
<path d="M816.812 568L863.625 499" stroke="white"/>
<path d="M837.056 568L863.626 528" stroke="white"/>
<path d="M864.332 2H1089.61V29M2 430.038H1089.61V45" stroke="white" stroke-width="2.35833"/>
<path d="M2 112.121V568H862.84V2H2C2 11.8675 2 32.7866 2 37.523" stroke="white" stroke-width="2.35833"/>
</svg>
