<svg width="24" height="30" viewBox="0 0 24 30" fill="none" xmlns="http://www.w3.org/2000/svg">
<line x1="7" y1="24.25" x2="16" y2="24.25" stroke="#FFC443" stroke-width="1.5"/>
<path d="M13.375 1L14.0884 0.299292C13.9004 0.107846 13.6433 0 13.375 0V1ZM3.75 1V0V1ZM1 3.8H0H1ZM1 26.2H0H1ZM23 10.8H24C24 10.5379 23.8971 10.2863 23.7134 10.0993L23 10.8ZM13.375 10.8H12.375C12.375 11.3523 12.8227 11.8 13.375 11.8V10.8ZM13.375 0H3.75V2H13.375V0ZM3.75 0C2.74956 0 1.79382 0.404816 1.09201 1.11939L2.5189 2.52081C2.84854 2.18518 3.29174 2 3.75 2V0ZM1.09201 1.11939C0.390792 1.83336 0 2.79793 0 3.8H2C2 3.31685 2.18867 2.85705 2.5189 2.52081L1.09201 1.11939ZM0 3.8V26.2H2V3.8H0ZM0 26.2C0 27.2021 0.390792 28.1666 1.09201 28.8806L2.5189 27.4792C2.18867 27.143 2 26.6831 2 26.2H0ZM1.09201 28.8806C1.79382 29.5952 2.74956 30 3.75 30V28C3.29174 28 2.84854 27.8148 2.5189 27.4792L1.09201 28.8806ZM3.75 30H20.25V28H3.75V30ZM20.25 30C21.2504 30 22.2062 29.5952 22.908 28.8806L21.4811 27.4792C21.1515 27.8148 20.7083 28 20.25 28V30ZM22.908 28.8806C23.6092 28.1666 24 27.2021 24 26.2H22C22 26.6831 21.8113 27.143 21.4811 27.4792L22.908 28.8806ZM24 26.2V10.8H22V26.2H24ZM23.7134 10.0993L14.0884 0.299292L12.6616 1.70071L22.2866 11.5007L23.7134 10.0993ZM12.375 1V10.8H14.375V1H12.375ZM13.375 11.8H23V9.8H13.375V11.8Z" fill="#FFC443"/>
<path d="M12.25 14V13.25H10.75V14H12.25ZM11.5 21L10.9697 21.5303L11.5 22.0607L12.0303 21.5303L11.5 21ZM15.5303 18.0303L16.0607 17.5L15 16.4393L14.4697 16.9697L15.5303 18.0303ZM8.53033 16.9697L8 16.4393L6.93934 17.5L7.46967 18.0303L8.53033 16.9697ZM10.75 14V21H12.25V14H10.75ZM14.4697 16.9697L10.9697 20.4697L12.0303 21.5303L15.5303 18.0303L14.4697 16.9697ZM12.0303 20.4697L8.53033 16.9697L7.46967 18.0303L10.9697 21.5303L12.0303 20.4697Z" fill="#FFC443"/>
</svg>
