<svg width="17" height="16" viewBox="0 0 17 16" fill="none" xmlns="http://www.w3.org/2000/svg">
<path d="M8.5 14.25C8.08579 14.25 7.75 14.5858 7.75 15C7.75 15.4142 8.08579 15.75 8.5 15.75V14.25ZM16 15.75C16.4142 15.75 16.75 15.4142 16.75 15C16.75 14.5858 16.4142 14.25 16 14.25V15.75ZM12.25 1.50805L11.7247 0.97272V0.97272L12.25 1.50805ZM13.5 1V0.25V1ZM15.2678 2.73459H14.5178H15.2678ZM14.75 3.96113L14.2247 3.4258L14.75 3.96113ZM4.33333 14.1823L4.51202 14.9107C4.64279 14.8786 4.76251 14.8119 4.85862 14.7176L4.33333 14.1823ZM1 15L0.273218 14.8148C0.208172 15.0701 0.281851 15.3408 0.467311 15.528C0.652771 15.7151 0.922813 15.7912 1.17868 15.7284L1 15ZM1.83333 11.7292L1.30805 11.1939C1.21012 11.29 1.14043 11.4111 1.10655 11.5441L1.83333 11.7292ZM8.5 15.75H16V14.25H8.5V15.75ZM12.7753 2.04338C12.9651 1.85712 13.2255 1.75 13.5 1.75V0.25C12.8368 0.25 12.1979 0.508384 11.7247 0.97272L12.7753 2.04338ZM13.5 1.75C13.6356 1.75 13.7696 1.77623 13.8941 1.82684L14.4589 0.437234C14.1545 0.313508 13.8287 0.25 13.5 0.25V1.75ZM13.8941 1.82684C14.0186 1.87745 14.1308 1.95126 14.2247 2.04338L15.2753 0.97272C15.0409 0.742698 14.7633 0.56097 14.4589 0.437234L13.8941 1.82684ZM14.2247 2.04338C14.3186 2.13547 14.3922 2.24403 14.4422 2.36247L15.8242 1.77911C15.6965 1.47666 15.5097 1.20277 15.2753 0.97272L14.2247 2.04338ZM14.4422 2.36247C14.4922 2.48088 14.5178 2.60729 14.5178 2.73459H16.0178C16.0178 2.40632 15.9519 2.0816 15.8242 1.77911L14.4422 2.36247ZM14.5178 2.73459C14.5178 2.8619 14.4922 2.9883 14.4422 3.10671L15.8242 3.69007C15.9519 3.38758 16.0178 3.06287 16.0178 2.73459H14.5178ZM14.4422 3.10671C14.3922 3.22516 14.3186 3.33371 14.2247 3.4258L15.2753 4.49646C15.5097 4.26641 15.6965 3.99253 15.8242 3.69007L14.4422 3.10671ZM14.2247 3.4258L3.80805 13.647L4.85862 14.7176L15.2753 4.49646L14.2247 3.4258ZM4.15465 13.4539L0.821317 14.2716L1.17868 15.7284L4.51202 14.9107L4.15465 13.4539ZM1.72678 15.1852L2.56012 11.9144L1.10655 11.5441L0.273218 14.8148L1.72678 15.1852ZM2.35862 12.2646L12.7753 2.04338L11.7247 0.97272L1.30805 11.1939L2.35862 12.2646Z" fill="#ACACAC"/>
</svg>
