<svg width="240" height="46" viewBox="0 0 240 46" fill="none" xmlns="http://www.w3.org/2000/svg">
<path d="M61.3072 16.4693H55.0469V33.0058H58.8267V27.8087H61.3072C64.5672 27.8087 67.095 25.2809 67.095 22.139C67.095 18.9971 64.5672 16.4693 61.3072 16.4693ZM61.3072 24.2651H58.8267V20.0129H61.3072C62.4647 20.0129 63.3152 20.9342 63.3152 22.139C63.3152 23.3438 62.4647 24.2651 61.3072 24.2651Z" fill="white"/>
<path d="M73.9421 29.3678V16.4693H70.1623V33.0058H79.848V29.3678H73.9421Z" fill="white"/>
<path d="M93.6678 33.0058H97.8019L92.1795 16.4693H87.3603L81.7379 33.0058H85.872L86.6988 30.4072H92.8409L93.6678 33.0058ZM87.8328 26.8637L89.7699 20.7925L91.707 26.8637H87.8328Z" fill="white"/>
<path d="M109.606 16.4693V25.4463L103.228 16.4693H100.393V33.0058H104.173V24.0289L110.551 33.0058H113.386V16.4693H109.606Z" fill="white"/>
<path d="M125.29 33.3366C130.039 33.3366 133.889 29.604 133.889 24.7376C133.889 19.8711 130.039 16.1386 125.29 16.1386C120.542 16.1386 116.692 19.8711 116.692 24.7376C116.692 29.604 120.542 33.3366 125.29 33.3366ZM125.29 29.6513C122.597 29.6513 120.471 27.6905 120.471 24.7376C120.471 21.7846 122.597 19.8239 125.29 19.8239C127.984 19.8239 130.11 21.7846 130.11 24.7376C130.11 27.6905 127.984 29.6513 125.29 29.6513Z" fill="white"/>
<path d="M153.735 16.4693H149.956L145.467 23.8163L140.979 16.4693H137.199V33.0058H140.979V23.391L145.254 30.4072H145.68L149.956 23.391V33.0058H153.735V16.4693Z" fill="white"/>
<path d="M161.538 29.3678V26.4385H167.444V22.8477H161.538V20.1074H168.035V16.4693H157.759V33.0058H168.153V29.3678H161.538Z" fill="white"/>
<path d="M182.57 16.4693H170.286V20.1074H174.538V33.0058H178.318V20.1074H182.57V16.4693Z" fill="white"/>
<path d="M194.099 33.0058H198.162L194.642 26.9346C196.461 26.0133 197.69 24.1706 197.69 22.139C197.69 18.9971 195.162 16.4693 192.02 16.4693H185.406V33.0058H189.185V27.5724H190.981L194.099 33.0058ZM189.185 20.0129H192.02C193.06 20.0129 193.91 20.9342 193.91 22.139C193.91 23.3438 193.06 24.2651 192.02 24.2651H189.185V20.0129Z" fill="white"/>
<path d="M201.121 16.4693V33.0058H204.901V16.4693H201.121Z" fill="white"/>
<path d="M222.294 33.0058L216.483 24.525L222.058 16.4693H217.758L212.703 23.6509V16.4693H208.923V33.0058H212.703V25.3518L217.995 33.0058H222.294Z" fill="white"/>
<path d="M235.866 33.0058H240L234.378 16.4693H229.558L223.936 33.0058H228.07L228.897 30.4072H235.039L235.866 33.0058ZM230.031 26.8637L231.968 20.7925L233.905 26.8637H230.031Z" fill="white"/>
<path d="M153.735 16.4694H149.956L145.467 23.8163L140.979 16.4694H137.199V33.0059H140.979V23.3911L145.254 30.4073H145.68L149.956 23.3911V33.0059H153.735V16.4694Z" fill="#FFC443"/>
<path d="M161.538 29.3679V26.4386H167.444V22.8478H161.538V20.1075H168.035V16.4694H157.759V33.0059H168.153V29.3679H161.538Z" fill="#FFC443"/>
<path d="M182.57 16.4694H170.286V20.1075H174.538V33.0059H178.318V20.1075H182.57V16.4694Z" fill="#FFC443"/>
<path d="M194.099 33.0059H198.162L194.642 26.9347C196.461 26.0133 197.69 24.1707 197.69 22.1391C197.69 18.9971 195.162 16.4694 192.02 16.4694H185.406V33.0059H189.185V27.5725H190.981L194.099 33.0059ZM189.185 20.013H192.02C193.06 20.013 193.91 20.9343 193.91 22.1391C193.91 23.3439 193.06 24.2652 192.02 24.2652H189.185V20.013Z" fill="#FFC443"/>
<path d="M201.121 16.4694V33.0059H204.901V16.4694H201.121Z" fill="#FFC443"/>
<path d="M222.294 33.0059L216.483 24.5251L222.058 16.4694H217.758L212.703 23.651V16.4694H208.923V33.0059H212.703V25.3519L217.995 33.0059H222.294Z" fill="#FFC443"/>
<path d="M235.866 33.0059H240L234.378 16.4694H229.558L223.936 33.0059H228.07L228.897 30.4073H235.039L235.866 33.0059ZM230.031 26.8638L231.968 20.7925L233.905 26.8638H230.031Z" fill="#FFC443"/>
<path fill-rule="evenodd" clip-rule="evenodd" d="M11.6038 0.599609H39.6118V34.0891L27.5883 46.1127H0.400604V39.1106H3.20141V43.3119H26.4282L36.811 32.929V3.40041H14.4046V11.1026H3.20141V20.9054H0.400604V8.30182H11.6038V0.599609Z" fill="white"/>
<path d="M2.50102 35.4823V32.1494C2.85112 32.1914 3.38327 32.1914 3.59333 32.1914C5.86198 32.1914 7.22037 30.651 7.22037 28.9005C7.22037 27.206 6.24009 25.6515 3.25724 25.6515C2.50102 25.6515 0.806533 25.6795 0.260376 25.6795V35.4823H2.50102ZM3.4813 27.7521C4.27953 27.7521 4.83969 28.0182 4.83969 28.8864C4.83969 29.8387 4.11148 30.0908 3.52331 30.0908C3.20122 30.0908 2.82311 30.0628 2.50102 30.0208V27.7801C2.96315 27.7661 3.18722 27.7521 3.4813 27.7521Z" fill="white"/>
</svg>
