<svg width="159" height="30" viewBox="0 0 159 30" fill="none" xmlns="http://www.w3.org/2000/svg">
<path d="M40.2391 10.0602H36.1127V20.9602H38.6041V17.5345H40.2391C42.388 17.5345 44.0541 15.8683 44.0541 13.7973C44.0541 11.7263 42.388 10.0602 40.2391 10.0602ZM40.2391 15.1988H38.6041V12.3959H40.2391C41.0021 12.3959 41.5627 13.0032 41.5627 13.7973C41.5627 14.5915 41.0021 15.1988 40.2391 15.1988Z" fill="#767E9D"/>
<path d="M48.5674 18.5622V10.0602H46.076V20.9602H52.4603V18.5622H48.5674Z" fill="#767E9D"/>
<path d="M61.5697 20.9602H64.2947L60.5887 10.0602H57.4121L53.706 20.9602H56.4311L56.9761 19.2474H61.0247L61.5697 20.9602ZM57.7235 16.9116L59.0004 12.9098L60.2772 16.9116H57.7235Z" fill="#767E9D"/>
<path d="M72.0756 10.0602V15.9773L67.8712 10.0602H66.0027V20.9602H68.4941V15.043L72.6984 20.9602H74.567V10.0602H72.0756Z" fill="#767E9D"/>
<path d="M82.4138 21.1782C85.5437 21.1782 88.0819 18.7179 88.0819 15.5102C88.0819 12.3025 85.5437 9.84216 82.4138 9.84216C79.284 9.84216 76.7458 12.3025 76.7458 15.5102C76.7458 18.7179 79.284 21.1782 82.4138 21.1782ZM82.4138 18.7491C80.6387 18.7491 79.2372 17.4566 79.2372 15.5102C79.2372 13.5638 80.6387 12.2713 82.4138 12.2713C84.189 12.2713 85.5904 13.5638 85.5904 15.5102C85.5904 17.4566 84.189 18.7491 82.4138 18.7491Z" fill="#767E9D"/>
<path d="M101.163 10.0602H98.6718L95.7132 14.9029L92.7546 10.0602H90.2632V20.9602H92.7546V14.6226L95.5731 19.2474H95.8534L98.6718 14.6226V20.9602H101.163V10.0602Z" fill="#767E9D"/>
<path d="M106.307 18.5622V16.6313H110.2V14.2645H106.307V12.4582H110.589V10.0602H103.815V20.9602H110.667V18.5622H106.307Z" fill="#767E9D"/>
<path d="M120.17 10.0602H112.072V12.4582H114.875V20.9602H117.367V12.4582H120.17V10.0602Z" fill="#767E9D"/>
<path d="M127.769 20.9602H130.447L128.127 16.9583C129.326 16.3511 130.136 15.1365 130.136 13.7973C130.136 11.7263 128.47 10.0602 126.399 10.0602H122.039V20.9602H124.53V17.3788H125.714L127.769 20.9602ZM124.53 12.3959H126.399C127.084 12.3959 127.645 13.0032 127.645 13.7973C127.645 14.5915 127.084 15.1988 126.399 15.1988H124.53V12.3959Z" fill="#767E9D"/>
<path d="M132.398 10.0602V20.9602H134.889V10.0602H132.398Z" fill="#767E9D"/>
<path d="M146.354 20.9602L142.523 15.37L146.198 10.0602H143.364L140.032 14.7939V10.0602H137.54V20.9602H140.032V15.9151L143.52 20.9602H146.354Z" fill="#767E9D"/>
<path d="M155.3 20.9602H158.025L154.319 10.0602H151.142L147.436 20.9602H150.161L150.706 19.2474H154.755L155.3 20.9602ZM151.454 16.9116L152.73 12.9098L154.007 16.9116H151.454Z" fill="#767E9D"/>
<path d="M101.163 10.0602H98.6718L95.7132 14.903L92.7546 10.0602H90.2632V20.9603H92.7546V14.6227L95.5731 19.2474H95.8534L98.6718 14.6227V20.9603H101.163V10.0602Z" fill="#767E9D"/>
<path d="M106.307 18.5623V16.6314H110.2V14.2645H106.307V12.4582H110.589V10.0602H103.815V20.9603H110.667V18.5623H106.307Z" fill="#767E9D"/>
<path d="M120.17 10.0602H112.072V12.4582H114.875V20.9603H117.367V12.4582H120.17V10.0602Z" fill="#767E9D"/>
<path d="M127.769 20.9603H130.447L128.127 16.9584C129.326 16.3511 130.136 15.1365 130.136 13.7974C130.136 11.7264 128.47 10.0602 126.399 10.0602H122.039V20.9603H124.53V17.3788H125.714L127.769 20.9603ZM124.53 12.3959H126.399C127.084 12.3959 127.645 13.0032 127.645 13.7974C127.645 14.5915 127.084 15.1988 126.399 15.1988H124.53V12.3959Z" fill="#767E9D"/>
<path d="M132.398 10.0602V20.9603H134.889V10.0602H132.398Z" fill="#767E9D"/>
<path d="M146.354 20.9603L142.523 15.3701L146.198 10.0602H143.364L140.032 14.794V10.0602H137.54V20.9603H140.032V15.9151L143.52 20.9603H146.354Z" fill="#767E9D"/>
<path d="M155.3 20.9603H158.025L154.319 10.0602H151.142L147.436 20.9603H150.161L150.706 19.2474H154.755L155.3 20.9603ZM151.454 16.9117L152.73 12.9098L154.007 16.9117H151.454Z" fill="#767E9D"/>
<path fill-rule="evenodd" clip-rule="evenodd" d="M7.47708 -0.400391H25.9386V21.6743L18.0133 29.5996H0.0924683V24.9842H1.93862V27.7535H17.2486L24.0925 20.9096V1.44576H9.32324V6.52269H1.93862V12.9842H0.0924683V4.67653H7.47708V-0.400391Z" fill="#767E9D"/>
<path d="M1.47692 22.5926V20.3957C1.70769 20.4234 2.05846 20.4234 2.19692 20.4234C3.69231 20.4234 4.58769 19.408 4.58769 18.2541C4.58769 17.1372 3.94154 16.1126 1.97538 16.1126C1.47692 16.1126 0.36 16.1311 0 16.1311V22.5926H1.47692ZM2.12308 17.4972C2.64923 17.4972 3.01846 17.6726 3.01846 18.2449C3.01846 18.8726 2.53846 19.0388 2.15077 19.0388C1.93846 19.0388 1.68923 19.0203 1.47692 18.9926V17.5157C1.78154 17.5065 1.92923 17.4972 2.12308 17.4972Z" fill="#767E9D"/>
</svg>
