<svg width="15" height="15" viewBox="0 0 15 15" fill="none" xmlns="http://www.w3.org/2000/svg">
<path d="M7.1725 9.375C7.00674 9.375 6.84777 9.44085 6.73056 9.55806C6.61335 9.67527 6.5475 9.83424 6.5475 10V11.875C6.5475 12.3723 6.34996 12.8492 5.99833 13.2008C5.64669 13.5525 5.16978 13.75 4.6725 13.75H3.125C2.62772 13.75 2.15081 13.5525 1.79917 13.2008C1.44754 12.8492 1.25 12.3723 1.25 11.875V3.125C1.25 2.62772 1.44754 2.15081 1.79917 1.79917C2.15081 1.44754 2.62772 1.25 3.125 1.25H4.6725C5.16978 1.25 5.64669 1.44754 5.99833 1.79917C6.34996 2.15081 6.5475 2.62772 6.5475 3.125V5C6.5475 5.16576 6.61335 5.32473 6.73056 5.44194C6.84777 5.55915 7.00674 5.625 7.1725 5.625C7.33826 5.625 7.49723 5.55915 7.61444 5.44194C7.73165 5.32473 7.7975 5.16576 7.7975 5V3.125C7.79651 2.2965 7.46695 1.50222 6.88111 0.916387C6.29528 0.330551 5.501 0.000992411 4.6725 0H3.125C2.2965 0.000992411 1.50222 0.330551 0.916387 0.916387C0.330551 1.50222 0.000992411 2.2965 0 3.125L0 11.875C0.000992411 12.7035 0.330551 13.4978 0.916387 14.0836C1.50222 14.6694 2.2965 14.999 3.125 15H4.6725C5.501 14.999 6.29528 14.6694 6.88111 14.0836C7.46695 13.4978 7.79651 12.7035 7.7975 11.875V10C7.7975 9.83424 7.73165 9.67527 7.61444 9.55806C7.49723 9.44085 7.33826 9.375 7.1725 9.375Z" fill="#1D1D1D"/>
<path d="M14.292 6.17452L11.4257 3.30827C11.3681 3.24857 11.2991 3.20096 11.2228 3.1682C11.1466 3.13545 11.0646 3.11821 10.9816 3.11749C10.8986 3.11676 10.8163 3.13258 10.7395 3.164C10.6627 3.19543 10.5929 3.24184 10.5342 3.30052C10.4755 3.3592 10.4291 3.42899 10.3977 3.5058C10.3663 3.58261 10.3505 3.66491 10.3512 3.74789C10.3519 3.83088 10.3692 3.91289 10.4019 3.98914C10.4347 4.0654 10.4823 4.13436 10.542 4.19202L13.2057 6.85639L3.7501 6.87514C3.58434 6.87514 3.42536 6.94099 3.30815 7.0582C3.19094 7.17541 3.1251 7.33438 3.1251 7.50014C3.1251 7.6659 3.19094 7.82487 3.30815 7.94208C3.42536 8.05929 3.58434 8.12514 3.7501 8.12514L13.2426 8.10577L10.5407 10.8083C10.481 10.8659 10.4334 10.9349 10.4007 11.0111C10.3679 11.0874 10.3507 11.1694 10.3499 11.2524C10.3492 11.3354 10.365 11.4177 10.3965 11.4945C10.4279 11.5713 10.4743 11.6411 10.533 11.6998C10.5917 11.7584 10.6614 11.8049 10.7382 11.8363C10.8151 11.8677 10.8974 11.8835 10.9803 11.8828C11.0633 11.8821 11.1453 11.8648 11.2216 11.8321C11.2979 11.7993 11.3668 11.7517 11.4245 11.692L14.2907 8.82577C14.6424 8.47432 14.8401 7.99758 14.8403 7.5004C14.8406 7.00322 14.6433 6.5263 14.292 6.17452Z" fill="#1D1D1D"/>
</svg>
