<svg width="132" height="52" viewBox="0 0 132 52" fill="none" xmlns="http://www.w3.org/2000/svg">
<path d="M8.7498 1.00002H0.799805V22H5.5998V15.4H8.7498C12.8898 15.4 16.0998 12.19 16.0998 8.20002C16.0998 4.21002 12.8898 1.00002 8.7498 1.00002ZM8.7498 10.9H5.5998V5.50002H8.7498C10.2198 5.50002 11.2998 6.67002 11.2998 8.20002C11.2998 9.73002 10.2198 10.9 8.7498 10.9Z" fill="white"/>
<path d="M24.7951 17.38V1.00002H19.9951V22H32.2951V17.38H24.7951Z" fill="white"/>
<path d="M49.8451 22H55.0951L47.9551 1.00002H41.8351L34.6951 22H39.9451L40.9951 18.7H48.7951L49.8451 22ZM42.4351 14.2L44.8951 6.49002L47.3551 14.2H42.4351Z" fill="white"/>
<path d="M70.0857 1.00002V12.4L61.9857 1.00002H58.3857V22H63.1857V10.6L71.2857 22H74.8857V1.00002H70.0857Z" fill="white"/>
<path d="M90.0034 22.42C96.0334 22.42 100.923 17.68 100.923 11.5C100.923 5.32002 96.0334 0.580017 90.0034 0.580017C83.9734 0.580017 79.0834 5.32002 79.0834 11.5C79.0834 17.68 83.9734 22.42 90.0034 22.42ZM90.0034 17.74C86.5834 17.74 83.8834 15.25 83.8834 11.5C83.8834 7.75002 86.5834 5.26002 90.0034 5.26002C93.4234 5.26002 96.1234 7.75002 96.1234 11.5C96.1234 15.25 93.4234 17.74 90.0034 17.74Z" fill="white"/>
<path d="M21.7998 31H16.9998L11.2998 40.33L5.5998 31H0.799805V52H5.5998V39.79L11.0298 48.7H11.5698L16.9998 39.79V52H21.7998V31Z" fill="white"/>
<path d="M31.7092 47.38V43.66H39.2092V39.1H31.7092V35.62H39.9592V31H26.9092V52H40.1092V47.38H31.7092Z" fill="white"/>
<path d="M58.4174 31H42.8174V35.62H48.2174V52H53.0174V35.62H58.4174V31Z" fill="white"/>
<path d="M73.0586 52H78.2186L73.7486 44.29C76.0586 43.12 77.6186 40.78 77.6186 38.2C77.6186 34.21 74.4086 31 70.4186 31H62.0186V52H66.8186V45.1H69.0986L73.0586 52ZM66.8186 35.5H70.4186C71.7386 35.5 72.8186 36.67 72.8186 38.2C72.8186 39.73 71.7386 40.9 70.4186 40.9H66.8186V35.5Z" fill="white"/>
<path d="M81.9756 31V52H86.7756V31H81.9756Z" fill="white"/>
<path d="M108.864 52L101.484 41.23L108.564 31H103.104L96.6838 40.12V31H91.8838V52H96.6838V42.28L103.404 52H108.864Z" fill="white"/>
<path d="M126.099 52H131.349L124.209 31H118.089L110.949 52H116.199L117.249 48.7H125.049L126.099 52ZM118.689 44.2L121.149 36.49L123.609 44.2H118.689Z" fill="white"/>
</svg>
