<svg width="15" height="15" viewBox="0 0 15 15" fill="none" xmlns="http://www.w3.org/2000/svg">
<path d="M9.81881 7.94375C10.4316 7.46166 10.8788 6.80058 11.0983 6.05247C11.3179 5.30435 11.2988 4.50642 11.0437 3.76967C10.7886 3.03292 10.3102 2.394 9.6751 1.94179C9.03999 1.48958 8.27972 1.24657 7.50006 1.24657C6.7204 1.24657 5.96013 1.48958 5.32502 1.94179C4.6899 2.394 4.21152 3.03292 3.95644 3.76967C3.70136 4.50642 3.68225 5.30435 3.90178 6.05247C4.12132 6.80058 4.56856 7.46166 5.18131 7.94375C4.13136 8.3644 3.21524 9.0621 2.53062 9.96245C1.846 10.8628 1.41854 11.9321 1.29381 13.0563C1.28478 13.1383 1.29201 13.2214 1.31507 13.3007C1.33814 13.3799 1.3766 13.4539 1.42825 13.5183C1.53257 13.6484 1.6843 13.7318 1.85006 13.75C2.01582 13.7682 2.18203 13.7199 2.31214 13.6156C2.44224 13.5112 2.52558 13.3595 2.54381 13.1938C2.68105 11.972 3.26361 10.8436 4.1802 10.0242C5.09678 9.20486 6.28312 8.7519 7.51256 8.7519C8.742 8.7519 9.92834 9.20486 10.8449 10.0242C11.7615 10.8436 12.3441 11.972 12.4813 13.1938C12.4983 13.3473 12.5716 13.4892 12.687 13.5919C12.8024 13.6946 12.9518 13.7509 13.1063 13.75H13.1751C13.3389 13.7312 13.4886 13.6483 13.5917 13.5195C13.6947 13.3908 13.7426 13.2265 13.7251 13.0625C13.5997 11.9351 13.17 10.8631 12.4818 9.96138C11.7937 9.05964 10.8731 8.36218 9.81881 7.94375ZM7.50006 7.5C7.00561 7.5 6.52226 7.35338 6.11113 7.07868C5.70001 6.80397 5.37958 6.41353 5.19036 5.95671C5.00114 5.4999 4.95163 4.99723 5.0481 4.51228C5.14456 4.02732 5.38266 3.58187 5.73229 3.23223C6.08192 2.8826 6.52738 2.6445 7.01233 2.54804C7.49729 2.45158 7.99995 2.50108 8.45677 2.6903C8.91358 2.87952 9.30403 3.19995 9.57873 3.61108C9.85344 4.0222 10.0001 4.50555 10.0001 5C10.0001 5.66304 9.73667 6.29893 9.26783 6.76777C8.79899 7.23661 8.1631 7.5 7.50006 7.5Z" fill="#1D1D1D"/>
</svg>
