<svg width="22" height="20" viewBox="0 0 22 20" fill="none" xmlns="http://www.w3.org/2000/svg">
<path d="M9.05429 4.23089C9.49501 4.57827 9.75674 5.02433 9.80642 5.5199C9.8557 6.01148 9.6921 6.50421 9.33071 6.94815L8.20401 8.3367C8.27013 8.43503 8.33227 8.53375 8.39401 8.62848C8.48005 8.76518 8.56131 8.89428 8.64455 9.003C9.51114 10.111 10.5937 11.0883 11.9583 11.993C12.6371 12.4296 13.1999 12.7122 13.7615 12.9022C14.027 12.5445 14.3069 12.2097 14.5757 11.884C14.6759 11.761 14.78 11.6375 14.8802 11.5144C15.6316 10.5914 16.7138 10.4829 17.6335 11.2384L18.8291 12.2206C18.9649 12.3321 19.105 12.4472 19.2443 12.5544C19.5151 12.7694 19.7949 12.9957 20.0597 13.2315C20.4805 13.5809 20.7299 14.0242 20.7788 14.5117C20.8277 14.9993 20.672 15.4913 20.3301 15.9292C20.3266 15.9336 20.3266 15.9336 20.323 15.938L19.0945 17.4336C18.6365 17.9962 18.0451 18.3502 17.3313 18.4864C16.1791 18.6987 15.0625 18.4635 14.3278 18.2708C12.5242 17.7976 10.8158 16.992 8.9444 15.7223C6.68803 14.1804 4.83367 12.239 3.43466 9.94914C2.90883 9.0734 2.27257 7.89791 2.04761 6.53587C2.03522 6.45234 2.02243 6.36481 2.01442 6.28488C1.92187 5.36168 2.17438 4.55324 2.76997 3.87995C2.77753 3.87516 2.78071 3.86677 2.78826 3.86197C3.01809 3.62902 3.22084 3.3665 3.43831 3.09038C3.58421 2.90218 3.73766 2.70918 3.89948 2.51938C4.26963 2.08263 4.72625 1.82695 5.21563 1.77789C5.709 1.72843 6.2037 1.89278 6.64205 2.25655L9.05429 4.23089Z" stroke="#1D1D1D" stroke-width="2"/>
</svg>
