<svg width="17" height="11" viewBox="0 0 17 11" fill="none" xmlns="http://www.w3.org/2000/svg">
<path fill-rule="evenodd" clip-rule="evenodd" d="M16.4335 0.979741C16.557 0.591616 16.4335 0.309324 15.8866 0.309324H14.0693C13.6106 0.309324 13.3989 0.556303 13.2754 0.820991C13.2754 0.820991 12.3403 3.07927 11.0348 4.54359C10.6113 4.96703 10.4173 5.10818 10.1879 5.10818C10.0644 5.10818 9.90565 4.96703 9.90565 4.57891V0.962085C9.90565 0.503387 9.7645 0.291668 9.37633 0.291668H6.5182C6.23591 0.291668 6.0595 0.503387 6.0595 0.715105C6.0595 1.1562 6.71226 1.26203 6.78284 2.49703V5.17875C6.78284 5.76099 6.677 5.86682 6.44763 5.86682C5.83013 5.86682 4.33049 3.59089 3.4307 0.997397C3.25424 0.48573 3.07784 0.291668 2.61914 0.291668H0.784243C0.254967 0.291668 0.166748 0.538699 0.166748 0.803335C0.166748 1.27969 0.784243 3.67912 3.04252 6.85485C4.54221 9.0249 6.677 10.1893 8.60008 10.1893C9.7645 10.1893 9.90565 9.92469 9.90565 9.48365V7.84287C9.90565 7.31354 10.0115 7.22537 10.382 7.22537C10.6466 7.22537 11.123 7.36646 12.1992 8.4074C13.4342 9.6424 13.6459 10.207 14.334 10.207H16.1512C16.6805 10.207 16.9275 9.94234 16.7864 9.43068C16.6276 8.91906 16.0277 8.17807 15.2514 7.29589C14.828 6.80193 14.1928 6.255 13.9988 5.99031C13.7341 5.6375 13.8047 5.49636 13.9988 5.17875C13.9812 5.17875 16.2041 2.03833 16.4335 0.979741Z" fill="white"/>
</svg>
